<svg width="164" height="297" viewBox="0 0 164 297" fill="none" xmlns="http://www.w3.org/2000/svg">
<rect width="164" height="297" fill="#212121"/>
<g filter="url(#filter0_i_2131_2066)">
<path d="M32.207 63.736C33.6577 62.8827 35.8337 62.072 38.735 61.304C41.7217 60.536 44.7083 60.152 47.695 60.152C51.9617 60.152 55.7163 60.792 58.959 62.072C62.287 63.2667 64.4203 65.1867 65.359 67.832C66.895 72.2693 68.559 77.432 70.351 83.32C72.143 89.208 73.935 95.3093 75.727 101.624C77.519 107.853 79.2683 114.04 80.975 120.184C82.6817 126.243 84.175 131.619 85.455 136.312C84.431 137.507 82.895 138.445 80.847 139.128C78.799 139.896 76.367 140.28 73.551 140.28C71.503 140.28 69.7537 140.109 68.303 139.768C66.9377 139.427 65.7857 138.915 64.847 138.232C63.9937 137.549 63.2683 136.653 62.671 135.544C62.159 134.435 61.6897 133.155 61.263 131.704L58.959 122.872H35.791C35.1083 125.432 34.4257 128.077 33.743 130.808C33.0603 133.539 32.3777 136.184 31.695 138.744C30.5003 139.171 29.2203 139.512 27.855 139.768C26.575 140.109 24.9963 140.28 23.119 140.28C18.767 140.28 15.5243 139.555 13.391 138.104C11.343 136.568 10.319 134.477 10.319 131.832C10.319 130.637 10.4897 129.443 10.831 128.248C11.1723 127.053 11.5563 125.645 11.983 124.024C12.5803 121.72 13.391 118.861 14.415 115.448C15.5243 112.035 16.719 108.365 17.999 104.44C19.279 100.429 20.6443 96.3333 22.095 92.152C23.5457 87.9707 24.911 84.0453 26.191 80.376C27.471 76.6213 28.623 73.2933 29.647 70.392C30.7563 67.4907 31.6097 65.272 32.207 63.736ZM47.567 80.248C46.3723 83.832 45.007 87.8427 43.471 92.28C42.0203 96.632 40.6977 101.069 39.503 105.592H55.375C54.1803 100.984 52.943 96.504 51.663 92.152C50.4683 87.7147 49.359 83.7467 48.335 80.248H47.567Z" fill="#816AFF" fill-opacity="0.92"/>
</g>
<g filter="url(#filter1_i_2131_2066)">
<path d="M77.455 175.949C78.6497 176.291 80.1857 176.547 82.063 176.717C83.9403 176.803 85.7323 176.845 87.439 176.845C90.8523 176.845 93.6683 176.163 95.887 174.797C98.191 173.347 99.343 171.128 99.343 168.141C99.343 165.325 98.4043 163.32 96.527 162.125C94.6497 160.931 91.791 160.333 87.951 160.333H77.455V175.949ZM77.455 144.717H86.799C90.4683 144.717 93.1137 144.035 94.735 142.669C96.4417 141.304 97.295 139.299 97.295 136.653C97.295 134.349 96.3137 132.515 94.351 131.149C92.4737 129.784 89.615 129.101 85.775 129.101C84.495 129.101 83.0017 129.144 81.295 129.229C79.6737 129.315 78.3937 129.443 77.455 129.613V144.717ZM85.775 193.997C84.3243 193.997 82.6177 193.955 80.655 193.869C78.6923 193.784 76.6443 193.613 74.511 193.357C72.463 193.101 70.415 192.76 68.367 192.333C66.319 191.992 64.4417 191.48 62.735 190.797C58.0417 189.005 55.695 185.891 55.695 181.453V121.677C55.695 119.885 56.1643 118.52 57.103 117.581C58.127 116.557 59.4923 115.747 61.199 115.149C64.1003 114.125 67.727 113.4 72.079 112.973C76.431 112.461 80.911 112.205 85.519 112.205C96.4417 112.205 104.847 114.04 110.735 117.709C116.623 121.379 119.567 127.053 119.567 134.733C119.567 138.573 118.458 141.901 116.239 144.717C114.02 147.448 111.034 149.453 107.279 150.733C111.546 151.928 115.087 154.104 117.903 157.261C120.804 160.419 122.255 164.387 122.255 169.165C122.255 177.613 119.098 183.885 112.783 187.981C106.554 191.992 97.551 193.997 85.775 193.997Z" fill="#816AFF" fill-opacity="0.92"/>
</g>
<g filter="url(#filter2_i_2131_2066)">
<path d="M131.31 183.909C124.739 183.909 119.704 185.914 116.206 189.925C112.707 193.936 110.958 199.61 110.958 206.949C110.958 214.373 112.878 220.09 116.718 224.101C120.643 228.112 125.891 230.117 132.462 230.117C135.96 230.117 138.904 229.648 141.294 228.709C143.768 227.77 146.115 226.704 148.334 225.509C149.784 226.704 150.894 228.154 151.662 229.861C152.515 231.482 152.942 233.402 152.942 235.621C152.942 239.12 150.979 242.106 147.054 244.581C143.214 246.97 137.326 248.165 129.39 248.165C123.672 248.165 118.296 247.354 113.262 245.733C108.227 244.112 103.832 241.637 100.078 238.309C96.3228 234.896 93.3362 230.629 91.1175 225.509C88.9842 220.304 87.9175 214.117 87.9175 206.949C87.9175 200.293 88.9415 194.448 90.9895 189.413C93.1228 184.293 95.9815 179.984 99.5655 176.485C103.235 172.986 107.502 170.341 112.366 168.549C117.23 166.757 122.435 165.861 127.982 165.861C135.832 165.861 141.891 167.141 146.158 169.701C150.51 172.261 152.686 175.546 152.686 179.557C152.686 181.776 152.131 183.696 151.021 185.317C149.912 186.938 148.632 188.218 147.182 189.157C144.963 187.706 142.574 186.469 140.014 185.445C137.539 184.421 134.638 183.909 131.31 183.909Z" fill="#816AFF" fill-opacity="0.92"/>
</g>
<defs>
<filter id="filter0_i_2131_2066" x="10.3191" y="60.1519" width="78.636" height="81.1279" filterUnits="userSpaceOnUse" color-interpolation-filters="sRGB">
<feFlood flood-opacity="0" result="BackgroundImageFix"/>
<feBlend mode="normal" in="SourceGraphic" in2="BackgroundImageFix" result="shape"/>
<feColorMatrix in="SourceAlpha" type="matrix" values="0 0 0 0 0 0 0 0 0 0 0 0 0 0 0 0 0 0 127 0" result="hardAlpha"/>
<feOffset dx="4" dy="1"/>
<feGaussianBlur stdDeviation="1.75"/>
<feComposite in2="hardAlpha" operator="arithmetic" k2="-1" k3="1"/>
<feColorMatrix type="matrix" values="0 0 0 0 0 0 0 0 0 0 0 0 0 0 0 0 0 0 0.5 0"/>
<feBlend mode="normal" in2="shape" result="effect1_innerShadow_2131_2066"/>
</filter>
<filter id="filter1_i_2131_2066" x="55.6951" y="112.205" width="70.0601" height="82.792" filterUnits="userSpaceOnUse" color-interpolation-filters="sRGB">
<feFlood flood-opacity="0" result="BackgroundImageFix"/>
<feBlend mode="normal" in="SourceGraphic" in2="BackgroundImageFix" result="shape"/>
<feColorMatrix in="SourceAlpha" type="matrix" values="0 0 0 0 0 0 0 0 0 0 0 0 0 0 0 0 0 0 127 0" result="hardAlpha"/>
<feOffset dx="4" dy="1"/>
<feGaussianBlur stdDeviation="1.75"/>
<feComposite in2="hardAlpha" operator="arithmetic" k2="-1" k3="1"/>
<feColorMatrix type="matrix" values="0 0 0 0 0 0 0 0 0 0 0 0 0 0 0 0 0 0 0.5 0"/>
<feBlend mode="normal" in2="shape" result="effect1_innerShadow_2131_2066"/>
</filter>
<filter id="filter2_i_2131_2066" x="87.9175" y="165.861" width="68.5239" height="83.3042" filterUnits="userSpaceOnUse" color-interpolation-filters="sRGB">
<feFlood flood-opacity="0" result="BackgroundImageFix"/>
<feBlend mode="normal" in="SourceGraphic" in2="BackgroundImageFix" result="shape"/>
<feColorMatrix in="SourceAlpha" type="matrix" values="0 0 0 0 0 0 0 0 0 0 0 0 0 0 0 0 0 0 127 0" result="hardAlpha"/>
<feOffset dx="4" dy="1"/>
<feGaussianBlur stdDeviation="1.75"/>
<feComposite in2="hardAlpha" operator="arithmetic" k2="-1" k3="1"/>
<feColorMatrix type="matrix" values="0 0 0 0 0 0 0 0 0 0 0 0 0 0 0 0 0 0 0.5 0"/>
<feBlend mode="normal" in2="shape" result="effect1_innerShadow_2131_2066"/>
</filter>
</defs>
</svg>
