<svg width="144" height="152" viewBox="0 0 144 152" fill="none" xmlns="http://www.w3.org/2000/svg">
<rect width="144" height="152" fill="#212121"/>
<g filter="url(#filter0_i_2139_2067)">
<path d="M53.897 140.5C25.1782 140.5 61 93.1812 61 67.5C61 41.8188 76.8842 10 105.603 10C134.322 10 141.103 70.8188 141.103 96.5C141.103 122.181 82.6158 140.5 53.897 140.5Z" fill="#816AFF"/>
</g>
<path d="M91.3698 109.926C91.4962 109.578 91.8266 109.347 92.1965 109.347H110.676C111.037 109.347 111.362 109.568 111.494 109.904L114.439 117.384C116.258 122.002 112.854 127 107.892 127H95.2095C90.3263 127 86.9275 122.148 88.5956 117.559L91.3698 109.926Z" fill="black"/>
<path d="M90.5681 108.558C90.5681 107.267 91.751 106.301 93.0241 106.52C98.996 107.548 103.172 107.555 109.14 106.524C110.415 106.304 111.601 107.27 111.601 108.564V108.564C111.601 109.534 110.92 110.375 109.967 110.557C103.355 111.822 98.9868 111.826 92.2085 110.552C91.2528 110.373 90.5681 109.531 90.5681 108.558V108.558Z" fill="#2600FF"/>
<path d="M80.7209 50.0235C74.7392 50.5522 76.0294 66.5468 77.4222 74.4779C68.9969 84.6147 73.4439 96.0841 77.4222 99.9492C89.8955 112.069 111.375 107.742 117.227 105.101C136.755 96.2887 130.935 81.0138 125.583 74.4779C128.926 59.3206 128.375 53.713 124.044 51.5657C118.414 49.6269 110.263 57.9547 106.891 62.3609C103.372 60.9509 98.9738 61.7734 97.2145 62.3609C94.209 58.0281 86.7025 49.4947 80.7209 50.0235Z" fill="black"/>
<path d="M99.8823 59.4658C100.685 59.9636 102.244 61.7173 102.061 64.7498" stroke="black" stroke-width="2.19914" stroke-linecap="round"/>
<path d="M103.58 56.9121C103.856 57.8165 105.155 62.5875 103.021 64.7462" stroke="black" stroke-width="2.19914" stroke-linecap="round"/>
<path d="M77.7311 97.4302C77.0972 98.3827 75.6709 100.526 75.0371 101.478" stroke="black" stroke-width="2.19914" stroke-linecap="round"/>
<path d="M76.8141 95.6676C75.6814 95.8186 73.1327 96.1584 72 96.3094" stroke="black" stroke-width="2.19914" stroke-linecap="round"/>
<path d="M80.0937 99.4545C79.9945 100.595 79.7714 103.161 79.6722 104.301" stroke="black" stroke-width="2.19914" stroke-linecap="round"/>
<path d="M125.655 96.8712C126.374 97.7603 127.994 99.761 128.714 100.65" stroke="black" stroke-width="2.19914" stroke-linecap="round"/>
<path d="M126.404 95.0307C127.545 95.0753 130.115 95.1757 131.256 95.2203" stroke="black" stroke-width="2.19914" stroke-linecap="round"/>
<path d="M123.491 99.107C123.695 100.233 124.156 102.767 124.361 103.893" stroke="black" stroke-width="2.19914" stroke-linecap="round"/>
<ellipse cx="90.481" cy="84.7547" rx="9.24661" ry="11.2342" fill="white"/>
<ellipse cx="92.6973" cy="84.7547" rx="3.81253" ry="7.49736" fill="#010101"/>
<ellipse cx="112.908" cy="84.7547" rx="9.24661" ry="11.2342" fill="white"/>
<ellipse cx="110.401" cy="84.7547" rx="3.81253" ry="7.49736" fill="#010101"/>
<path fill-rule="evenodd" clip-rule="evenodd" d="M101.284 114.256C102.546 114.155 103.539 113.096 103.539 111.806C103.539 110.448 102.44 109.347 101.084 109.347C99.7288 109.347 98.6299 110.448 98.6299 111.806C98.6299 113.096 99.6227 114.155 100.885 114.256V112.881C100.677 112.801 100.529 112.599 100.529 112.362C100.529 112.055 100.778 111.806 101.084 111.806C101.391 111.806 101.64 112.055 101.64 112.362C101.64 112.599 101.492 112.801 101.284 112.881V114.256Z" fill="#F7B534"/>
<path d="M113.87 113.013C114.405 118.939 111.951 120.662 110.658 120.782L109.168 126.779C117.756 125.571 120.724 117.376 121.134 113.43C121.321 112.201 120.878 109.709 117.605 109.573C114.332 109.436 113.751 111.809 113.87 113.013Z" fill="black"/>
<defs>
<filter id="filter0_i_2139_2067" x="42.7458" y="10" width="98.3572" height="134.5" filterUnits="userSpaceOnUse" color-interpolation-filters="sRGB">
<feFlood flood-opacity="0" result="BackgroundImageFix"/>
<feBlend mode="normal" in="SourceGraphic" in2="BackgroundImageFix" result="shape"/>
<feColorMatrix in="SourceAlpha" type="matrix" values="0 0 0 0 0 0 0 0 0 0 0 0 0 0 0 0 0 0 127 0" result="hardAlpha"/>
<feOffset dy="8"/>
<feGaussianBlur stdDeviation="2"/>
<feComposite in2="hardAlpha" operator="arithmetic" k2="-1" k3="1"/>
<feColorMatrix type="matrix" values="0 0 0 0 0 0 0 0 0 0 0 0 0 0 0 0 0 0 0.25 0"/>
<feBlend mode="normal" in2="shape" result="effect1_innerShadow_2139_2067"/>
</filter>
</defs>
</svg>
