<svg width="63" height="77" viewBox="0 0 63 77" fill="none" xmlns="http://www.w3.org/2000/svg">
<path d="M21.3698 59.9258C21.4962 59.5782 21.8266 59.3467 22.1965 59.3467H40.6756C41.037 59.3467 41.3617 59.5678 41.4941 59.9041L44.4395 67.3844C46.2576 72.0017 42.8539 76.9999 37.8915 76.9999H25.2095C20.3263 76.9999 16.9275 72.1481 18.5956 67.5587L21.3698 59.9258Z" fill="black"/>
<path d="M20.5681 58.5585C20.5681 57.2666 21.751 56.3011 23.0241 56.5203C28.996 57.5484 33.1717 57.5554 39.14 56.5239C40.4151 56.3036 41.6011 57.27 41.6011 58.5641C41.6011 59.5342 40.92 60.3748 39.9672 60.5571C33.3546 61.8217 28.9868 61.8259 22.2085 60.5521C21.2528 60.3725 20.5681 59.531 20.5681 58.5585Z" fill="#2600FF"/>
<path d="M10.7209 0.0234783C4.73922 0.552223 6.02938 16.5468 7.42217 24.4779C-1.0031 34.6147 3.44389 46.0841 7.42217 49.9492C19.8955 62.0689 41.375 57.7417 47.2267 55.1011C66.755 46.2887 60.9346 31.0138 55.5834 24.4779C58.9261 9.32058 58.3747 3.71302 54.044 1.56565C48.4142 -0.373081 40.2627 7.95465 36.8907 12.3609C33.3721 10.9509 28.9738 11.7734 27.2145 12.3609C24.209 8.02809 16.7025 -0.505267 10.7209 0.0234783Z" fill="black"/>
<path d="M29.8823 9.46582C30.6849 9.9636 32.2443 11.7173 32.0608 14.7498" stroke="black" stroke-width="2.19914" stroke-linecap="round"/>
<path d="M33.5803 6.91211C33.8561 7.81651 35.1547 12.5875 33.0208 14.7462" stroke="black" stroke-width="2.19914" stroke-linecap="round"/>
<path d="M7.73106 47.4302C7.09717 48.3827 5.67094 50.5258 5.03711 51.4783" stroke="black" stroke-width="2.19914" stroke-linecap="round"/>
<path d="M6.81412 45.6676C5.68138 45.8186 3.13273 46.1584 2.00004 46.3094" stroke="black" stroke-width="2.19914" stroke-linecap="round"/>
<path d="M10.0937 49.4545C9.99449 50.5949 9.77135 53.161 9.67221 54.3014" stroke="black" stroke-width="2.19914" stroke-linecap="round"/>
<path d="M55.6547 46.8712C56.3744 47.7603 57.9938 49.761 58.7135 50.6502" stroke="black" stroke-width="2.19914" stroke-linecap="round"/>
<path d="M56.4036 45.0307C57.5454 45.0753 60.1146 45.1757 61.2564 45.2203" stroke="black" stroke-width="2.19914" stroke-linecap="round"/>
<path d="M53.4906 49.107C53.6954 50.2332 54.1563 52.7673 54.3611 53.8935" stroke="black" stroke-width="2.19914" stroke-linecap="round"/>
<ellipse cx="20.481" cy="34.7547" rx="9.24661" ry="11.2342" fill="white"/>
<ellipse cx="22.6973" cy="34.7547" rx="3.81253" ry="7.49736" fill="#010101"/>
<ellipse cx="42.9085" cy="34.7547" rx="9.24661" ry="11.2342" fill="white"/>
<ellipse cx="40.4009" cy="34.7547" rx="3.81253" ry="7.49736" fill="#010101"/>
<path fill-rule="evenodd" clip-rule="evenodd" d="M31.2837 64.2564C32.546 64.1548 33.5388 63.0963 33.5388 61.8056C33.5388 60.4476 32.4399 59.3467 31.0843 59.3467C29.7288 59.3467 28.6299 60.4476 28.6299 61.8056C28.6299 63.0963 29.6227 64.1548 30.8851 64.2564V62.8811C30.6769 62.8009 30.5291 62.5986 30.5291 62.3618C30.5291 62.0546 30.7777 61.8056 31.0843 61.8056C31.391 61.8056 31.6396 62.0546 31.6396 62.3618C31.6396 62.5986 31.4919 62.8008 31.2837 62.8811V64.2564Z" fill="#F7B534"/>
<path d="M43.8702 63.0132C44.4051 68.9394 41.9515 70.6619 40.6578 70.7824L39.1677 76.7795C47.7561 75.5708 50.7235 67.376 51.1337 63.4298C51.3211 62.2009 50.8777 59.709 47.6049 59.5725C44.3322 59.436 43.7515 61.8094 43.8702 63.0132Z" fill="black"/>
</svg>
