<svg width="326" height="209" viewBox="0 0 326 209" fill="none" xmlns="http://www.w3.org/2000/svg">
<rect width="321" height="209" fill="#212121"/>
<g filter="url(#filter0_f_2126_2065)">
<path d="M285.835 154.138C270.518 180.05 208.561 179.322 178.609 161.618C112.548 131.505 124.519 109.55 139.835 83.6383C155.151 57.7269 265.596 74.8007 295.548 92.5052C325.5 110.21 301.151 128.227 285.835 154.138Z" fill="#816AFF"/>
</g>
<path d="M285.835 154.138C270.518 180.05 208.561 179.322 178.609 161.618C112.548 131.505 124.519 109.55 139.835 83.6383C155.151 57.7269 265.596 74.8007 295.548 92.5052C325.5 110.21 301.151 128.227 285.835 154.138Z" fill="#816AFF" fill-opacity="0.52"/>
<path d="M212.37 139.926C212.496 139.578 212.827 139.347 213.197 139.347H231.676C232.037 139.347 232.362 139.568 232.494 139.904L235.439 147.384C237.258 152.002 233.854 157 228.892 157H216.209C211.326 157 207.927 152.148 209.596 147.559L212.37 139.926Z" fill="black"/>
<path d="M211.568 138.558C211.568 137.267 212.751 136.301 214.024 136.52C219.996 137.548 224.172 137.555 230.14 136.524C231.415 136.304 232.601 137.27 232.601 138.564V138.564C232.601 139.534 231.92 140.375 230.967 140.557C224.355 141.822 219.987 141.826 213.209 140.552C212.253 140.373 211.568 139.531 211.568 138.558V138.558Z" fill="#2600FF"/>
<path d="M201.721 80.0235C195.739 80.5522 197.029 96.5468 198.422 104.478C189.997 114.615 194.444 126.084 198.422 129.949C210.895 142.069 232.375 137.742 238.227 135.101C257.755 126.289 251.935 111.014 246.583 104.478C249.926 89.3206 249.375 83.713 245.044 81.5657C239.414 79.6269 231.263 87.9547 227.891 92.3609C224.372 90.9509 219.974 91.7734 218.214 92.3609C215.209 88.0281 207.703 79.4947 201.721 80.0235Z" fill="black"/>
<path d="M220.882 89.4658C221.685 89.9636 223.244 91.7173 223.061 94.7498" stroke="black" stroke-width="2.19914" stroke-linecap="round"/>
<path d="M224.58 86.9121C224.856 87.8165 226.155 92.5875 224.021 94.7462" stroke="black" stroke-width="2.19914" stroke-linecap="round"/>
<path d="M198.731 127.43C198.097 128.383 196.671 130.526 196.037 131.478" stroke="black" stroke-width="2.19914" stroke-linecap="round"/>
<path d="M197.814 125.668C196.681 125.819 194.133 126.158 193 126.309" stroke="black" stroke-width="2.19914" stroke-linecap="round"/>
<path d="M201.094 129.454C200.994 130.595 200.771 133.161 200.672 134.301" stroke="black" stroke-width="2.19914" stroke-linecap="round"/>
<path d="M246.655 126.871C247.374 127.76 248.994 129.761 249.714 130.65" stroke="black" stroke-width="2.19914" stroke-linecap="round"/>
<path d="M247.404 125.031C248.545 125.075 251.115 125.176 252.256 125.22" stroke="black" stroke-width="2.19914" stroke-linecap="round"/>
<path d="M244.491 129.107C244.695 130.233 245.156 132.767 245.361 133.893" stroke="black" stroke-width="2.19914" stroke-linecap="round"/>
<ellipse cx="211.481" cy="114.755" rx="9.24661" ry="11.2342" fill="white"/>
<ellipse cx="213.697" cy="114.755" rx="3.81253" ry="7.49736" fill="#010101"/>
<ellipse cx="233.908" cy="114.755" rx="9.24661" ry="11.2342" fill="white"/>
<ellipse cx="231.401" cy="114.755" rx="3.81253" ry="7.49736" fill="#010101"/>
<path fill-rule="evenodd" clip-rule="evenodd" d="M222.284 144.256C223.546 144.155 224.539 143.096 224.539 141.806C224.539 140.448 223.44 139.347 222.084 139.347C220.729 139.347 219.63 140.448 219.63 141.806C219.63 143.096 220.623 144.155 221.885 144.256V142.881C221.677 142.801 221.529 142.599 221.529 142.362C221.529 142.055 221.778 141.806 222.084 141.806C222.391 141.806 222.64 142.055 222.64 142.362C222.64 142.599 222.492 142.801 222.284 142.881V144.256Z" fill="#F7B534"/>
<path d="M234.87 143.013C235.405 148.939 232.951 150.662 231.658 150.782L230.168 156.779C238.756 155.571 241.724 147.376 242.134 143.43C242.321 142.201 241.878 139.709 238.605 139.573C235.332 139.436 234.751 141.809 234.87 143.013Z" fill="black"/>
<defs>
<filter id="filter0_f_2126_2065" x="111.93" y="54.4848" width="213.729" height="135.748" filterUnits="userSpaceOnUse" color-interpolation-filters="sRGB">
<feFlood flood-opacity="0" result="BackgroundImageFix"/>
<feBlend mode="normal" in="SourceGraphic" in2="BackgroundImageFix" result="shape"/>
<feGaussianBlur stdDeviation="7.95" result="effect1_foregroundBlur_2126_2065"/>
</filter>
</defs>
</svg>
