<svg width="28" height="25" viewBox="0 0 28 25" fill="none" xmlns="http://www.w3.org/2000/svg">
<g clip-path="url(#clip0_2037_1597)">
<path d="M1.91406 0H1.36719V1.5625H1.91406V0Z" fill="#A6A6A6"/>
<path d="M2.51562 0.537109H0.765625V1.02539H2.51562V0.537109Z" fill="#A6A6A6"/>
<path d="M25.6484 15.625H25.1016V17.1875H25.6484V15.625Z" fill="#A6A6A6"/>
<path d="M26.25 16.1621H24.5V16.6504H26.25V16.1621Z" fill="#A6A6A6"/>
<path d="M12.3512 11.6586L11.1138 10.5537L10.7271 10.899L11.9645 12.0038L12.3512 11.6586Z" fill="#A6A6A6"/>
<path d="M12.3505 10.8994L11.9637 10.5542L10.7264 11.6591L11.1131 12.0044L12.3505 10.8994Z" fill="#A6A6A6"/>
<path d="M5.90625 24.7852L5.36484 24.7217L6.43672 17.2363L4.62109 15.5859C4.60469 15.5713 4.59375 15.5566 4.58281 15.542L1.96875 11.6943C1.96328 11.6846 1.95781 11.6748 1.95234 11.6699L1.21406 10.21L0.0820312 9.19922C-0.0273437 9.10156 -0.0273437 8.9502 0.0820312 8.85254C0.514062 8.4668 1.09375 8.25195 1.70625 8.25195C2.31875 8.25195 2.89844 8.4668 3.33047 8.85254L3.45078 8.95996C3.45625 8.96484 3.46172 8.96973 3.46719 8.97461L4.53906 10.1025V8.66699C4.53906 8.66211 4.53906 8.65723 4.53906 8.65234L4.76328 5.35156L5.31016 5.38086L5.08594 8.67676V10.7666C5.08594 10.8691 5.01484 10.9619 4.90547 10.9961C4.79609 11.0303 4.67578 11.001 4.60469 10.9229L3.05156 9.29687L2.93672 9.19434C2.60859 8.90137 2.16562 8.73535 1.70078 8.73535C1.32344 8.73535 0.967969 8.83789 0.672656 9.0332L1.63516 9.89258C1.65703 9.91211 1.67891 9.93652 1.68984 9.96582L2.44453 11.4502L5.03672 15.2588L6.92344 16.9775C6.98359 17.0313 7.01094 17.1045 7 17.1777L5.90625 24.7852Z" fill="#A6A6A6"/>
<path d="M5.40832 3.92156L4.86243 3.89209L4.82942 4.37949L5.37531 4.40896L5.40832 3.92156Z" fill="#A6A6A6"/>
<path d="M13.1797 24.7852L12.6383 24.7217L13.7266 17.1387V8.68164L13.1469 3.06152C13.1196 2.79297 12.868 2.58789 12.5617 2.58789C12.2391 2.58789 11.9766 2.82227 11.9766 3.11035V8.67188C11.9766 8.80371 11.8563 8.91113 11.7086 8.91602C11.561 8.9209 11.4352 8.81836 11.4297 8.68652L11.0141 2.08008C10.9922 1.7627 10.7024 1.51367 10.3469 1.51367C9.98049 1.51367 9.67971 1.78223 9.67971 2.10938V8.03223C9.67971 8.16406 9.5594 8.27148 9.41174 8.27637C9.26409 8.28125 9.13831 8.17383 9.13284 8.04199L8.83752 0.986328C8.82659 0.708008 8.57502 0.488281 8.25784 0.488281C7.94612 0.488281 7.68909 0.708008 7.67815 0.986328L7.38284 8.04688C7.37737 8.17871 7.25706 8.28613 7.10393 8.28125C6.95627 8.27637 6.83596 8.16895 6.83596 8.03711V2.09473C6.83596 1.77246 6.54612 1.51367 6.18518 1.51367C5.84065 1.51367 5.55627 1.75293 5.5344 2.06055L5.47424 2.94434L4.92737 2.91504L4.98752 2.03125C5.02581 1.46484 5.55081 1.02539 6.18518 1.02539C6.55706 1.02539 6.89612 1.18164 7.11487 1.4209L7.13127 0.97168C7.15315 0.424805 7.65081 0 8.25784 0C8.86487 0 9.36252 0.424805 9.3844 0.966797L9.40627 1.42578C9.63049 1.18164 9.96956 1.02539 10.3524 1.02539C10.9977 1.02539 11.5281 1.47461 11.5664 2.05078L11.5992 2.58301C11.7961 2.29492 12.1571 2.09961 12.5672 2.09961C13.1578 2.09961 13.6391 2.49512 13.6938 3.01758L14.2735 8.64746C14.2735 8.65723 14.2735 8.66211 14.2735 8.67188V17.1533C14.2735 17.1631 14.2735 17.1729 14.2735 17.1826L13.1797 24.7852Z" fill="#A6A6A6"/>
<path d="M15.2467 24.7305L15.1027 23.605L14.5593 23.6604L14.7033 24.7859L15.2467 24.7305Z" fill="#A6A6A6"/>
<path d="M14.9779 22.6311L14.9152 22.1411L14.3718 22.1965L14.4345 22.6865L14.9779 22.6311Z" fill="#A6A6A6"/>
<path d="M21.9735 24.7852L21 17.1777C20.9891 17.1045 21.0165 17.0313 21.0766 16.9775L22.9633 15.2588L25.55 11.4502L26.3047 9.96582C26.3157 9.94141 26.3375 9.91699 26.3594 9.89258L27.3219 9.0332C27.0266 8.83789 26.6657 8.73535 26.2938 8.73535C25.829 8.73535 25.386 8.89648 25.0579 9.19434L24.943 9.29687L23.3899 10.9229C23.3133 11.001 23.193 11.0303 23.0891 10.9961C22.9797 10.9619 22.9086 10.8691 22.9086 10.7666V8.67676L22.4602 2.06055C22.4383 1.75293 22.154 1.51367 21.8094 1.51367C21.4485 1.51367 21.1586 1.77246 21.1586 2.09473V8.03711C21.1586 8.16895 21.0383 8.27637 20.8907 8.28125H20.8852C20.7375 8.28125 20.6172 8.17871 20.6118 8.04688L20.3165 0.991211C20.311 0.708008 20.054 0.488281 19.7422 0.488281C19.4305 0.488281 19.1735 0.708008 19.1625 0.986328L18.8672 8.04688C18.8618 8.17871 18.736 8.28613 18.5883 8.28125C18.4407 8.27637 18.3204 8.16895 18.3204 8.03711V2.10938C18.3204 1.78223 18.0196 1.51367 17.6532 1.51367C17.2977 1.51367 17.0024 1.7627 16.986 2.08008L16.5704 8.68652C16.5594 8.81836 16.4391 8.9209 16.2915 8.91602C16.1438 8.91113 16.0235 8.80371 16.0235 8.67188V3.11035C16.0235 2.82227 15.761 2.58789 15.4383 2.58789C15.1321 2.58789 14.886 2.79297 14.8532 3.06152L14.2735 8.68164V17.1387L14.7875 21.1621L14.2461 21.2158L13.7266 17.1777C13.7266 17.168 13.7266 17.1582 13.7266 17.1484V8.67188C13.7266 8.66211 13.7266 8.65723 13.7266 8.64746L14.3118 3.01758C14.3665 2.49512 14.8532 2.09961 15.4383 2.09961C15.8485 2.09961 16.204 2.29492 16.4063 2.58301L16.4391 2.05078C16.4774 1.47461 17.0079 1.02539 17.6532 1.02539C18.036 1.02539 18.375 1.18164 18.5993 1.42578L18.6211 0.966797C18.6375 0.424805 19.1352 0 19.7422 0C20.3493 0 20.8469 0.424805 20.8688 0.966797L20.8852 1.41602C21.104 1.17676 21.4375 1.02051 21.8149 1.02051C22.4493 1.02051 22.9743 1.45996 23.0125 2.02637L23.461 8.65234C23.461 8.65723 23.461 8.66211 23.461 8.66699V10.1025L24.5383 8.97461C24.5438 8.96973 24.5493 8.96484 24.5547 8.95996L24.675 8.85254C25.1071 8.4668 25.6868 8.25195 26.2993 8.25195C26.9118 8.25195 27.4915 8.4668 27.9235 8.85254C27.9727 8.89648 28.0055 8.95996 28.0055 9.02344C28.0055 9.08691 27.9782 9.15039 27.9235 9.19434L26.7915 10.2051L26.0477 11.6699C26.0422 11.6797 26.0368 11.6895 26.0313 11.6943L23.4172 15.542C23.4063 15.5566 23.3954 15.5713 23.379 15.5859L21.5633 17.2412L22.5204 24.7314L21.9735 24.7852ZM9.00708 13.8086C8.66255 12.6416 7.63442 11.7187 6.33286 11.3965L4.74146 11.0059L4.88911 10.5371L6.48052 10.9277C7.96802 11.2939 9.13833 12.3535 9.53755 13.6865L9.00708 13.8086Z" fill="#A6A6A6"/>
<path d="M18.6867 14.1211L18.1727 13.9551C18.6867 12.6953 19.7859 11.6895 21.1859 11.2061L23.0891 10.542L23.2859 10.9961L21.3828 11.6602C20.1305 12.0947 19.1461 12.9932 18.6867 14.1211ZM10.5711 8.64746L9.3625 8.30078H5.96094V7.8125H9.40625C9.43359 7.8125 9.46094 7.81738 9.48828 7.82227L10.7352 8.17871L10.5711 8.64746ZM15.7008 9.12109L15.5367 8.65723L18.5117 7.82715C18.5391 7.81738 18.5664 7.81738 18.5938 7.81738H21.6016V8.30566H18.6375L15.7008 9.12109Z" fill="#A6A6A6"/>
</g>
<defs>
<clipPath id="clip0_2037_1597">
<rect width="28" height="25" fill="white"/>
</clipPath>
</defs>
</svg>
