<svg width="28" height="28" viewBox="0 0 28 28" fill="none" xmlns="http://www.w3.org/2000/svg">
<path d="M20.4166 5.25C18.1416 5.25 15.6916 5.71667 14 7C12.3083 5.71667 9.85829 5.25 7.58329 5.25C5.89163 5.25 4.09496 5.50667 2.58996 6.17167C1.73829 6.55667 1.16663 7.385 1.16663 8.33V21.49C1.16663 23.0067 2.58996 24.1267 4.05996 23.7533C5.20329 23.4617 6.41663 23.3333 7.58329 23.3333C9.40329 23.3333 11.34 23.6367 12.9033 24.4067C13.6033 24.7567 14.3966 24.7567 15.085 24.4067C16.6483 23.625 18.585 23.3333 20.405 23.3333C21.5716 23.3333 22.785 23.4617 23.9283 23.7533C25.3983 24.1383 26.8216 23.0183 26.8216 21.49V8.33C26.8216 7.385 26.25 6.55667 25.3983 6.17167C23.905 5.50667 22.1083 5.25 20.4166 5.25ZM24.5 20.1017C24.5 20.8367 23.8233 21.3733 23.1 21.245C22.225 21.0817 21.315 21.0117 20.4166 21.0117C18.4333 21.0117 15.575 21.77 14 22.7617V9.33333C15.575 8.34167 18.4333 7.58333 20.4166 7.58333C21.49 7.58333 22.5516 7.68833 23.5666 7.91C24.1033 8.02667 24.5 8.505 24.5 9.05333V20.1017Z" fill="#A6A6A6"/>
<path d="M16.31 12.8452C15.9367 12.8452 15.5984 12.6118 15.4817 12.2385C15.33 11.7835 15.5867 11.2818 16.0417 11.1418C17.8384 10.5585 20.16 10.3718 22.295 10.6168C22.7734 10.6752 23.1234 11.1068 23.065 11.5852C23.0067 12.0635 22.575 12.4135 22.0967 12.3552C20.2067 12.1335 18.1417 12.3085 16.5784 12.8102C16.485 12.8218 16.3917 12.8452 16.31 12.8452Z" fill="#A6A6A6"/>
<path d="M16.31 15.9487C15.9367 15.9487 15.5984 15.7153 15.4817 15.342C15.33 14.887 15.5867 14.3853 16.0417 14.2453C17.8267 13.662 20.16 13.4753 22.295 13.7203C22.7734 13.7787 23.1234 14.2103 23.065 14.6887C23.0067 15.167 22.575 15.517 22.0967 15.4587C20.2067 15.237 18.1417 15.412 16.5784 15.9137C16.485 15.937 16.3917 15.9487 16.31 15.9487Z" fill="#A6A6A6"/>
<path d="M16.31 19.0522C15.9367 19.0522 15.5984 18.8189 15.4817 18.4455C15.33 17.9905 15.5867 17.4889 16.0417 17.3489C17.8267 16.7655 20.16 16.5789 22.295 16.8239C22.7734 16.8822 23.1234 17.3139 23.065 17.7922C23.0067 18.2705 22.575 18.6089 22.0967 18.5622C20.2067 18.3405 18.1417 18.5155 16.5784 19.0172C16.485 19.0405 16.3917 19.0522 16.31 19.0522Z" fill="#A6A6A6"/>
</svg>
