<svg width="144" height="152" viewBox="0 0 144 152" fill="none" xmlns="http://www.w3.org/2000/svg">
<rect width="144" height="152" fill="#212121"/>
<g filter="url(#filter0_i_2139_2067)">
<path d="M133 136.5C133 165.219 83.6812 126.5 58 126.5C32.3188 126.5 2 142.219 2 113.5C2 84.7812 62.8188 78 88.5 78C114.181 78 133 107.781 133 136.5Z" fill="#816AFF"/>
</g>
<path d="M24.3698 133.926C24.4962 133.578 24.8266 133.347 25.1965 133.347H43.6756C44.037 133.347 44.3617 133.568 44.4941 133.904L47.4395 141.384C49.2576 146.002 45.8539 151 40.8915 151H28.2095C23.3263 151 19.9275 146.148 21.5956 141.559L24.3698 133.926Z" fill="black"/>
<path d="M23.5681 132.558C23.5681 131.267 24.751 130.301 26.0241 130.52C31.996 131.548 36.1717 131.555 42.14 130.524C43.4151 130.304 44.6011 131.27 44.6011 132.564C44.6011 133.534 43.92 134.375 42.9672 134.557C36.3546 135.822 31.9868 135.826 25.2085 134.552C24.2528 134.373 23.5681 133.531 23.5681 132.558Z" fill="#816AFF"/>
<path d="M13.7209 74.0235C7.73922 74.5522 9.02938 90.5468 10.4222 98.4779C1.9969 108.615 6.44389 120.084 10.4222 123.949C22.8955 136.069 44.375 131.742 50.2267 129.101C69.755 120.289 63.9346 105.014 58.5834 98.4779C61.9261 83.3206 61.3747 77.713 57.044 75.5657C51.4142 73.6269 43.2627 81.9547 39.8907 86.3609C36.3721 84.9509 31.9738 85.7734 30.2145 86.3609C27.209 82.0281 19.7025 73.4947 13.7209 74.0235Z" fill="black"/>
<path d="M32.8823 83.4658C33.6849 83.9636 35.2443 85.7173 35.0608 88.7498" stroke="black" stroke-width="2.19914" stroke-linecap="round"/>
<path d="M36.5803 80.9121C36.8561 81.8165 38.1547 86.5875 36.0208 88.7462" stroke="black" stroke-width="2.19914" stroke-linecap="round"/>
<path d="M10.7311 121.43C10.0972 122.383 8.67094 124.526 8.03711 125.478" stroke="black" stroke-width="2.19914" stroke-linecap="round"/>
<path d="M9.81412 119.668C8.68138 119.819 6.13273 120.158 5.00004 120.309" stroke="black" stroke-width="2.19914" stroke-linecap="round"/>
<path d="M13.0937 123.454C12.9945 124.595 12.7714 127.161 12.6722 128.301" stroke="black" stroke-width="2.19914" stroke-linecap="round"/>
<path d="M58.6547 120.871C59.3744 121.76 60.9938 123.761 61.7135 124.65" stroke="black" stroke-width="2.19914" stroke-linecap="round"/>
<path d="M59.4036 119.031C60.5454 119.075 63.1146 119.176 64.2564 119.22" stroke="black" stroke-width="2.19914" stroke-linecap="round"/>
<path d="M56.4906 123.107C56.6954 124.233 57.1563 126.767 57.3611 127.893" stroke="black" stroke-width="2.19914" stroke-linecap="round"/>
<path fill-rule="evenodd" clip-rule="evenodd" d="M34.2837 138.256C35.546 138.155 36.5388 137.096 36.5388 135.806C36.5388 134.448 35.4399 133.347 34.0843 133.347C32.7288 133.347 31.6299 134.448 31.6299 135.806C31.6299 137.096 32.6227 138.155 33.8851 138.256V136.881C33.6769 136.801 33.5291 136.599 33.5291 136.362C33.5291 136.055 33.7777 135.806 34.0843 135.806C34.391 135.806 34.6396 136.055 34.6396 136.362C34.6396 136.599 34.4918 136.801 34.2837 136.881V138.256Z" fill="#F7B534"/>
<path d="M46.8702 137.013C47.4051 142.939 44.9515 144.662 43.6578 144.782L42.1677 150.779C50.7561 149.571 53.7235 141.376 54.1337 137.43C54.3211 136.201 53.8777 133.709 50.6049 133.573C47.3322 133.436 46.7515 135.809 46.8702 137.013Z" fill="black"/>
<ellipse cx="23.8364" cy="107.847" rx="9.77415" ry="9.79177" fill="white"/>
<ellipse cx="46.3152" cy="114.028" rx="6.22728" ry="1.68201" fill="white"/>
<ellipse cx="46.5313" cy="116.635" rx="8.35674" ry="3.15356" fill="black"/>
<ellipse cx="46.3152" cy="107.847" rx="9.77415" ry="9.79177" fill="white"/>
<ellipse cx="46.3151" cy="107.848" rx="7.84808" ry="7.86222" fill="black"/>
<ellipse cx="23.7819" cy="107.848" rx="7.84808" ry="7.86222" fill="black"/>
<ellipse cx="27.3068" cy="101.036" rx="1.99235" ry="1.99594" fill="white"/>
<ellipse cx="49.2331" cy="101.036" rx="1.99235" ry="1.99594" fill="white"/>
<ellipse cx="46.2734" cy="112.26" rx="7.42139" ry="2.00453" fill="white"/>
<ellipse cx="46.5314" cy="115.71" rx="9.95917" ry="3.75826" fill="black"/>
<ellipse cx="23.5911" cy="112.164" rx="7.06451" ry="1.90814" fill="white"/>
<ellipse cx="23.8365" cy="115.548" rx="9.48025" ry="3.57753" fill="black"/>
<defs>
<filter id="filter0_i_2139_2067" x="2" y="78" width="131" height="73.103" filterUnits="userSpaceOnUse" color-interpolation-filters="sRGB">
<feFlood flood-opacity="0" result="BackgroundImageFix"/>
<feBlend mode="normal" in="SourceGraphic" in2="BackgroundImageFix" result="shape"/>
<feColorMatrix in="SourceAlpha" type="matrix" values="0 0 0 0 0 0 0 0 0 0 0 0 0 0 0 0 0 0 127 0" result="hardAlpha"/>
<feOffset dy="8"/>
<feGaussianBlur stdDeviation="2"/>
<feComposite in2="hardAlpha" operator="arithmetic" k2="-1" k3="1"/>
<feColorMatrix type="matrix" values="0 0 0 0 0 0 0 0 0 0 0 0 0 0 0 0 0 0 0.25 0"/>
<feBlend mode="normal" in2="shape" result="effect1_innerShadow_2139_2067"/>
</filter>
</defs>
</svg>
